PathFileType	4	(X/Y/Z)	C:/Users/beibeiliu/ov580/test_trc/User2\sequence.25_training_dense_right.trc
DataRate	CameraRate	NumFrames	NumMarkers	Units	OrigDataRate	OrigDataStartFrame	OrigNumFrames
120	120	8	19	mm	120	30	118
Frame#	Time	ThumbCMC			ThumbMCP			ThumbIP			ThumbTip			IndexMCP			IndexPIP			IndexTip			MiddleMCP			MiddlePIP			MiddleTip			RingMCP			RingPIP			RingTip			PinkyMCP			PinkyPIP			PinkyTip			BackHand1			BackHand2			BackHand3	
		X0	Y0	Z0	X1	Y1	Z1	X2	Y2	Z2	X3	Y3	Z3	X4	Y4	Z4	X5	Y5	Z5	X6	Y6	Z6	X7	Y7	Z7	X8	Y8	Z8	X9	Y9	Z9	X10	Y10	Z10	X11	Y11	Z11	X12	Y12	Z12	X13	Y13	Z13	X14	Y14	Z14	X15	Y15	Z15	X16	Y16	Z16	X17	Y17	Z17	X18	Y18	Z18	
29	0.241667	125.913	64.2622	-19.567	122.646	84.6762	-42.465	117.947	104.412	-73.291	106.873	117.196	-92.5532	57.834	76.4028	-73.8355	44.8812	98.1848	-60.1563	65.0004	95.1325	-30.2359	39.7223	66.3212	-61.1053	36.8075	89.9931	-35.4683	72.9728	79.1592	-19.9445	28.3803	55.5698	-45.9367	27.2419	82.4514	-26.9047	59.1655	73.7512	-11.0697	22.1627	29.4464	-31.6947	-3.69682	39.1478	-37.0227	-23.3116	43.1349	-42.5213	75.3187	15.1045	-28.346	98.4055	3.85965	-1.9906	113.842	32.9143	-30.4509	
30	0.25	133.393	49.1134	-31.3635	135.164	64.9491	-55.6746	135.682	80.9692	-83.3331	133.508	94.25	-102.899	72.4427	72.3866	-81.8579	62.6939	95.7578	-62.7882	84.3907	87.0188	-37.6579	50.2794	66.851	-66.5341	54.7278	93.2049	-42.7494	83.9314	71.3251	-27.0218	34.3407	62.4686	-52.8484	42.0152	88.7137	-37.3044	69.6764	69.4084	-17.8305	23.4148	38.8349	-37.0608	2.7923	53.8899	-44.2581	-16.4469	61.1814	-49.6392	71.7819	12.2252	-29.0899	92.7422	1.91803	-5.71399	112.357	19.0347	-35.1603	
31	0.258333	142.472	32.0346	-37.1155	145.811	46.5721	-66.123	149.313	59.4986	-93.6365	152.244	72.6763	-115.998	81.2079	51.3843	-90.1093	76.1676	81.64	-75.2011	96.4398	69.1984	-47.8894	59.3187	52.0429	-78.2403	63.8523	78.8762	-55.886	96.4056	57.8734	-37.9937	45.1009	49.4399	-65.5293	51.078	74.8783	-49.3889	78.9403	62.2245	-33.2285	30.6005	25.5267	-44.4158	12.3772	40.217	-54.2351	-7.7125	50.0095	-65.0269	79.9084	-0.123407	-37.2618	101.887	-12.4288	-10.8725	116.487	2.90544	-40.0756	
32	0.266667	156.818	24.7697	-40.8084	157.908	38.9397	-71.2853	162.391	51.4177	-101.437	162.864	64.1968	-121.473	94.0027	34.0344	-99.9632	85.1062	66.552	-86.7918	102.641	59.778	-60.106	73.4246	30.2874	-87.6296	73.2586	62.6972	-69.1775	100.625	44.7688	-44.6864	55.9797	26.0066	-75.5944	56.5509	55.2548	-64.0806	84.5229	45.3576	-40.3827	45.5544	2.73463	-54.6996	21.657	13.2406	-61.578	0.101467	22.7383	-76.7552	93.93	-17.8356	-41.9046	111.499	-23.7333	-15.2629	129.547	-7.8677	-47.9263	
33	0.275	163.617	25.8791	-44.0757	167.249	41.0594	-68.8765	169.672	55.1245	-99.6675	171.157	66.6553	-123.45	105.222	25.9701	-109.244	87.5517	49.6652	-97.9004	102.814	48.0571	-65.2667	84.1232	11.918	-93.0983	74.9488	44.4626	-78.0892	104.597	38.434	-52.3027	65.8794	7.27482	-83.7738	60.4069	34.1029	-71.5329	85.8688	33.1721	-47.3287	60.2466	-20.3456	-63.2061	37.6911	-16.2379	-71.6375	13.2465	-15.8017	-84.7323	115.163	-28.8508	-48.6384	132.477	-29.7406	-22.9492	151.038	-8.13154	-49.889	
34	0.283333	166.641	30.7127	-46.5488	169.564	46.6781	-73.2222	167.697	58.8138	-98.9587	170.304	73.0947	-123.956	113	13.7301	-108.953	90.5269	39.2023	-100.821	103.693	42.3589	-70.1091	95.8976	4.87979	-101.643	78.7813	28.8261	-84.5525	109.74	29.3673	-55.6256	82.4122	-8.5932	-89.0837	67.1718	14.4154	-78.1265	96.19	23.5249	-52.5144	80.1809	-36.8912	-67.5799	56.4469	-39.546	-77.1169	37.7285	-44.3723	-91.8096	131.972	-31.1791	-47.9854	150.815	-27.908	-21.0455	162.029	-5.19182	-53.0233	
35	0.291667	170.772	37.4138	-42.6684	169.956	51.1236	-74.8464	168.494	64.3978	-103.002	162.885	72.5291	-124.224	122.841	11.9767	-114.168	96.5259	22.9167	-104.695	106.241	37.0166	-73.3199	106.045	-5.24488	-102.691	84.9097	17.0169	-85.1577	111.55	23.4441	-55.0359	96.8982	-21.8881	-88.4151	78.5313	4.73139	-79.9394	102.119	14.2355	-51.5251	99.6104	-48.1754	-71.4795	81.2751	-52.0901	-80.0131	61.132	-63.1286	-94.2604	152.53	-29.3913	-51.0199	167.449	-23.7324	-18.753	173.678	-1.65156	-50.5535	
36	0.3	169.854	46.9338	-42.1255	165.067	61.25	-66.3861	162.037	72.5536	-102.653	155.84	82.8587	-120.879	135.749	9.57904	-111.004	105.307	19.0827	-105.683	111.236	27.4988	-71.8705	124.953	-5.36773	-104.288	97.0918	5.72865	-87.6222	118.579	23.8988	-55.8171	119.6	-25.5569	-91.6895	93.506	-8.01181	-80.3929	112.362	7.80593	-54.1981	129.488	-51.447	-71.3879	109.68	-65.4539	-89.1359	101.01	-73.096	-102.688	170.16	-20.6777	-49.7817	182.859	-13.0152	-22.5753	185.03	13.6102	-45.0143	
